<svg width="247" height="208" viewBox="0 0 247 208" fill="none" xmlns="http://www.w3.org/2000/svg">
<g clip-path="url(#clip0_274_1445)">
<path d="M144.407 75.4955C144.407 75.4955 144.039 56.7751 161.838 56.7751C180.602 56.7751 177.128 44.1068 195.229 45.1408C207.465 45.8406 210.638 58.1279 217.674 59.9435C224.709 61.759 231.333 63.9622 231.333 75.1411L144.407 75.4955Z" fill="white"/>
<path d="M182.869 168.945C182.869 168.945 182.598 155.135 195.729 155.135C209.573 155.135 207.009 145.788 220.363 146.551C229.39 147.068 231.73 156.133 236.922 157.473C242.113 158.812 246.999 160.437 246.999 168.685L182.869 168.945Z" fill="white"/>
<path d="M2.52189e-05 105.65C2.52189e-05 105.65 -0.326482 89.0169 15.487 89.0169C32.1583 89.0169 29.0709 77.7619 45.1523 78.6819C56.0212 79.3035 58.8406 90.2203 65.0926 91.8333C71.3446 93.4463 77.2284 95.4037 77.2284 105.336L2.52189e-05 105.65Z" fill="white"/>
<path opacity="0.1" d="M144.407 75.4955C144.407 75.4955 144.039 56.7751 161.838 56.7751C180.602 56.7751 177.128 44.1068 195.229 45.1408C207.465 45.8406 210.638 58.1279 217.674 59.9435C224.709 61.759 231.333 63.9622 231.333 75.1411L144.407 75.4955Z" fill="#5A189A"/>
<path opacity="0.1" d="M182.869 168.945C182.869 168.945 182.598 155.135 195.729 155.135C209.573 155.135 207.009 145.788 220.363 146.551C229.39 147.068 231.73 156.133 236.922 157.473C242.113 158.812 246.999 160.437 246.999 168.685L182.869 168.945Z" fill="#5A189A"/>
<path opacity="0.1" d="M2.52189e-05 105.65C2.52189e-05 105.65 -0.326482 89.0169 15.487 89.0169C32.1583 89.0169 29.0709 77.7619 45.1523 78.6819C56.0212 79.3035 58.8406 90.2203 65.0926 91.8333C71.3446 93.4463 77.2284 95.4037 77.2284 105.336L2.52189e-05 105.65Z" fill="#5A189A"/>
<path d="M184.939 35.1417C184.802 34.9322 184.711 34.6983 184.672 34.4543C184.633 34.2102 184.647 33.9612 184.712 33.7224C184.778 33.4836 184.894 33.26 185.053 33.0652C185.213 32.8705 185.412 32.7086 185.64 32.5896C186.088 32.3737 186.606 32.3278 187.089 32.4613C187.572 32.5947 187.984 32.8975 188.241 33.3084L189.604 35.3915L188.945 28.0703C188.804 27.1315 189.257 25.8953 190.374 25.8122C191.272 25.6885 192.003 24.5411 193.078 25.0457C193.088 25.0431 201.518 31.3591 201.651 32.2288L202.17 43.8178C202.735 47.5079 189.547 46.7683 189.547 46.7683L184.939 35.1417Z" fill="#E98862"/>
<g opacity="0.1">
<path d="M184.939 35.1417C184.802 34.9322 184.711 34.6983 184.672 34.4543C184.633 34.2102 184.647 33.9612 184.712 33.7224C184.778 33.4836 184.894 33.26 185.053 33.0652C185.213 32.8705 185.412 32.7086 185.64 32.5896C186.088 32.3737 186.606 32.3278 187.089 32.4613C187.572 32.5947 187.984 32.8975 188.241 33.3084L189.604 35.3915L188.945 28.0703C188.804 27.1315 189.257 25.8953 190.374 25.8122C191.272 25.6885 192.003 24.5411 193.078 25.0457C193.088 25.0431 201.518 31.3591 201.651 32.2288L202.17 43.8178C202.735 47.5079 189.547 46.7683 189.547 46.7683L184.939 35.1417Z" fill="#0C0C0C"/>
</g>
<path d="M94.8144 91.9907C94.8144 91.9907 94.0574 102.792 91.5017 106.71C84.1447 117.991 82.0132 130.682 89.3808 137.313C96.7484 143.944 143.741 144.037 147.301 128.786C150.299 115.947 143.866 114.566 142.302 103.975C141.594 99.1828 139.645 89.1338 139.645 89.1338" fill="#0A0A0A"/>
<path d="M135.138 126.55C135.056 126.54 134.157 140.743 116.805 139.504C104.792 138.649 100.509 126.529 100.232 126.529C101.528 126.267 103.709 125.887 104.284 125.595C106.176 124.628 108.515 123.623 109.125 120.13C109.478 118.118 108.881 107.818 109.064 105.78L127.503 109.693C127.246 113.995 125.442 123.968 131.763 125.733C132.816 126.027 133.949 126.295 135.138 126.55Z" fill="#E98862"/>
<path opacity="0.5" d="M127.763 121.659C127.474 120.774 127.288 119.861 127.209 118.938C127.006 116.83 127.046 114.708 127.329 112.608C123.582 112.127 120.051 110.657 117.139 108.363C116.797 109.565 114.914 114.819 115.435 115.962C116.42 118.122 121.05 121.659 127.763 121.659Z" fill="#0C0C0C"/>
<path d="M125.379 117.234C118.109 117.905 108.703 115.138 106.755 105.932L104.996 97.6262C103.048 88.4207 106.553 79.985 115.668 78.2402C124.784 76.4968 133.176 82.6545 135.125 91.86L135.903 95.5374C136.651 99.0696 138.349 116.041 125.379 117.234Z" fill="#E98862"/>
<path d="M130.55 106.225C128.188 107.367 125.493 107.728 122.891 107.251C122.801 107.235 122.708 107.243 122.623 107.276C122.537 107.308 122.464 107.363 122.41 107.433C122.356 107.504 122.325 107.588 122.319 107.675C122.314 107.762 122.335 107.849 122.379 107.925C123.155 109.225 124.995 111.445 128.151 110.54C130.189 109.955 130.96 107.961 131.245 106.728C131.265 106.643 131.258 106.554 131.227 106.472C131.195 106.39 131.139 106.319 131.066 106.266C130.993 106.213 130.906 106.181 130.814 106.174C130.723 106.167 130.631 106.184 130.55 106.225Z" fill="white"/>
<path d="M130.698 96.236C131.328 96.236 131.839 95.7501 131.839 95.1507C131.839 94.5513 131.328 94.0654 130.698 94.0654C130.067 94.0654 129.556 94.5513 129.556 95.1507C129.556 95.7501 130.067 96.236 130.698 96.236Z" fill="#0C0C0C"/>
<path d="M119.73 98.062C120.36 98.062 120.871 97.5761 120.871 96.9767C120.871 96.3773 120.36 95.8914 119.73 95.8914C119.1 95.8914 118.589 96.3773 118.589 96.9767C118.589 97.5761 119.1 98.062 119.73 98.062Z" fill="#0C0C0C"/>
<path opacity="0.1" d="M120.758 105.172C121.954 105.036 122.839 104.249 122.734 103.415C122.63 102.581 121.575 102.014 120.379 102.15C119.182 102.286 118.297 103.072 118.402 103.907C118.507 104.741 119.561 105.307 120.758 105.172Z" fill="#0C0C0C"/>
<path opacity="0.1" d="M133.399 101.835C133.505 102.668 134.561 103.234 135.757 103.1C135.964 103.076 136.168 103.032 136.365 102.969C136.421 101.975 136.424 101.019 136.393 100.135C136.061 100.056 135.716 100.036 135.377 100.078C134.18 100.212 133.295 100.998 133.399 101.835Z" fill="#0C0C0C"/>
<path opacity="0.5" d="M128.113 104.411L128.131 104.408C128.5 104.335 128.865 104.242 129.224 104.131C129.759 103.96 130.458 103.681 130.362 103.22C130.251 102.696 127.541 97.3257 127.233 96.7158C127.206 96.6625 127.158 96.6215 127.099 96.6019C127.041 96.5823 126.976 96.5858 126.92 96.6114C126.864 96.6371 126.821 96.6829 126.8 96.7387C126.78 96.7946 126.783 96.8559 126.81 96.9093C127.966 99.1963 129.827 102.956 129.901 103.309C129.843 103.474 128.955 103.796 128.039 103.971C127.978 103.981 127.924 104.014 127.888 104.062C127.853 104.109 127.838 104.168 127.848 104.226C127.858 104.284 127.891 104.336 127.94 104.371C127.99 104.405 128.052 104.42 128.113 104.412L128.113 104.411Z" fill="#0C0C0C"/>
<path d="M97.7233 100.608L105.895 99.0899C112.068 96.6353 113.819 86.4056 113.819 86.4056C113.819 86.4056 121.438 93.3043 139.645 89.1327C139.645 89.1327 135.69 64.9637 108.805 72.2999C100.136 74.6654 93.996 83.0675 94.9092 94.1961C95.5492 101.995 97.7233 100.608 97.7233 100.608Z" fill="#0A0A0A"/>
<path d="M107.914 108.629C105.144 109.159 102.302 106.771 101.744 104.136C101.186 101.501 103.124 99.6194 105.895 99.0894L107.696 100.581L110.295 108.172L107.914 108.629Z" fill="#E98862"/>
<path d="M129.197 92.433C129.89 91.9669 130.701 91.6838 131.546 91.6126C131.97 91.5741 132.398 91.5968 132.816 91.6797C133.237 91.7615 133.646 91.8931 134.032 92.0716L134.045 92.077C134.088 92.095 134.136 92.0963 134.18 92.0807C134.224 92.0651 134.26 92.0338 134.28 91.9934C134.3 91.9531 134.302 91.907 134.287 91.8649C134.271 91.8228 134.239 91.7881 134.197 91.7682C133.788 91.5623 133.352 91.4064 132.901 91.3041C132.447 91.1992 131.979 91.1598 131.513 91.1871C130.569 91.2369 129.656 91.5264 128.869 92.0253C128.809 92.0636 128.769 92.1226 128.755 92.1893C128.742 92.2561 128.757 92.3252 128.797 92.3814C128.838 92.4376 128.9 92.4763 128.97 92.489C129.04 92.5017 129.113 92.4874 129.172 92.4491L129.178 92.4448L129.197 92.433Z" fill="#0C0C0C"/>
<path d="M121.732 93.414C120.804 93.2387 119.844 93.3033 118.951 93.6011C118.51 93.7457 118.094 93.9524 117.717 94.2144C117.342 94.4729 117.002 94.7753 116.706 95.1146C116.675 95.1481 116.659 95.192 116.661 95.2368C116.664 95.2816 116.685 95.3236 116.72 95.3538C116.755 95.384 116.8 95.4 116.848 95.3983C116.895 95.3965 116.939 95.3773 116.971 95.3446L116.981 95.3352C117.266 95.0295 117.591 94.7591 117.947 94.5305C118.3 94.3018 118.686 94.1251 119.094 94.0065C119.904 93.7649 120.767 93.7315 121.595 93.9096L121.616 93.9143C121.685 93.9303 121.758 93.9194 121.819 93.884C121.88 93.8487 121.924 93.7917 121.941 93.7257C121.958 93.6596 121.946 93.59 121.909 93.532C121.872 93.474 121.812 93.4324 121.743 93.4164L121.732 93.414Z" fill="#0C0C0C"/>
<path d="M105.901 98.9625C111.394 97.0179 113.217 93.4109 113.778 90.7267C114.142 88.9365 114.108 87.0939 113.679 85.3169L113.509 85.3611C113.931 87.1151 113.964 88.9336 113.604 90.7002C113.05 93.3405 111.253 96.8898 105.839 98.8056L105.901 98.9625Z" fill="#0C0C0C"/>
<path d="M43.3594 59.6669L39.7523 48.7076C39.673 48.4668 39.5418 48.2443 39.3672 48.0544C39.1925 47.8644 38.9782 47.7111 38.7378 47.6042C38.4975 47.4973 38.2363 47.4392 37.971 47.4335C37.7057 47.4279 37.4421 47.4748 37.197 47.5713C36.7501 47.7629 36.394 48.1054 36.1978 48.5325C36.0015 48.9596 35.9789 49.4408 36.1346 49.8827L36.9082 52.2327L30.9083 45.9043C30.2542 45.1895 28.969 44.7103 28.176 45.461C27.8504 45.7308 27.6306 46.0976 27.5524 46.5015C27.4742 46.9054 27.5423 47.3226 27.7455 47.685C27.7368 47.6891 27.7286 47.6941 27.7212 47.7C27.7163 47.7053 27.7118 47.7109 27.7078 47.7168L26.6993 46.6147C26.5124 46.4107 26.2799 46.2488 26.0188 46.141C25.7577 46.0332 25.4746 45.9822 25.1902 45.9916C24.9057 46.0011 24.6271 46.0708 24.3745 46.1956C24.122 46.3205 23.902 46.4973 23.7304 46.7133C23.4675 47.0585 23.3371 47.479 23.3613 47.9046C23.3854 48.3302 23.5625 48.735 23.863 49.0512L24.2921 49.5206C24.2837 49.5388 24.2787 49.5582 24.2773 49.578C23.91 49.325 23.4599 49.2045 23.0077 49.2381C22.5556 49.2717 22.1307 49.4572 21.8091 49.7614C21.4676 50.1039 21.2745 50.5563 21.2684 51.0283C21.2622 51.5002 21.4435 51.957 21.776 52.3075L22.8422 53.4722C22.8149 53.466 22.7864 53.4659 22.7591 53.4721C22.7318 53.4783 22.7064 53.4905 22.685 53.5078C22.6607 53.5296 22.6436 53.5577 22.636 53.5886C22.243 53.4499 21.8131 53.4377 21.4122 53.554C21.0113 53.6702 20.6617 53.9084 20.417 54.232C20.1673 54.5769 20.0474 54.9919 20.0766 55.4097C20.1059 55.8275 20.2826 56.2236 20.5782 56.534L29.5741 66.3621C30.8328 67.7368 32.4944 68.7228 34.3461 69.1938C36.1978 69.6649 38.1553 69.5995 39.9677 69.0062C41.5304 68.4942 42.8216 67.423 43.567 66.0202C44.3124 64.6173 44.4532 62.9935 43.9595 61.4935L43.3594 59.6669Z" fill="#E98862"/>
<g opacity="0.2">
<path d="M33.6512 53.9773C33.6162 54.0061 33.5707 54.0206 33.5245 54.0178C33.4784 54.015 33.4352 53.995 33.4044 53.9622L27.7078 47.9369C27.6765 47.9038 27.6603 47.8602 27.6628 47.8158C27.6653 47.7714 27.6862 47.7297 27.721 47.7C27.7558 47.6702 27.8016 47.6549 27.8483 47.6572C27.895 47.6596 27.9388 47.6795 27.9701 47.7126L33.6674 53.7379C33.6987 53.7709 33.7149 53.8144 33.7124 53.8588C33.71 53.9032 33.6891 53.9449 33.6544 53.9746L33.6512 53.9773Z" fill="#0C0C0C"/>
</g>
<g opacity="0.2">
<path d="M30.926 56.4397C30.891 56.4685 30.8455 56.4831 30.7993 56.4803C30.7531 56.4774 30.71 56.4575 30.6791 56.4247L24.3217 49.7003C24.2905 49.6672 24.2743 49.6237 24.2767 49.5793C24.2792 49.535 24.3001 49.4933 24.3348 49.4636C24.3703 49.4352 24.4158 49.4207 24.4621 49.4231C24.5084 49.4255 24.552 49.4445 24.5841 49.4763L30.9422 56.2004C30.9735 56.2334 30.9896 56.2769 30.9872 56.3213C30.9848 56.3657 30.9639 56.4073 30.9291 56.4371L30.926 56.4397Z" fill="#0C0C0C"/>
</g>
<g opacity="0.2">
<path d="M27.9902 59.1234C27.9551 59.1521 27.9096 59.1666 27.8634 59.1637C27.8173 59.1608 27.7741 59.1408 27.7433 59.1079L22.6722 53.7455C22.641 53.7124 22.6248 53.6688 22.6273 53.6244C22.6297 53.58 22.6507 53.5383 22.6855 53.5086C22.7203 53.4788 22.766 53.4635 22.8128 53.4658C22.8595 53.4682 22.9033 53.4881 22.9346 53.5212L28.0067 58.8857C28.038 58.9187 28.0541 58.9623 28.0516 59.0066C28.0491 59.051 28.0281 59.0927 27.9933 59.1224L27.9902 59.1234Z" fill="#0C0C0C"/>
</g>
<path d="M183.64 39.8335L172.094 92.8307L132.779 130.595L153.422 148.875L192.401 106.557L192.635 106.307C194.009 104.804 194.968 102.998 195.423 101.053L208.658 44.966L183.64 39.8335Z" fill="#0090FF"/>
<path d="M116.217 135.972C104.197 135.433 103.691 125.73 103.691 125.73C103.691 125.73 97.735 126.096 93.7756 126.606C87.2931 127.44 83.0171 129.53 79.6138 132.766C76.4481 135.776 77.3462 145.167 77.3462 145.167L80.5235 207.999H153.071L156.502 145.513C156.502 145.513 160.399 137.583 153.775 130.919C148.97 126.087 136.568 125.73 131.576 125.73C131.494 125.73 132.588 136.706 116.217 135.972Z" fill="#0090FF"/>
<path d="M59.7412 103.344L46.7422 59.1389L22.1614 65.9163L37.1882 113.508C37.8754 115.665 39.1803 117.598 40.9568 119.09L41.2036 119.296L80.7968 152.388L98.6832 131.647L59.7412 103.344Z" fill="#0090FF"/>
<path d="M193.562 35.0369C193.361 34.7747 193.256 34.4573 193.263 34.133C193.269 33.8087 193.387 33.4953 193.598 33.2405C193.574 33.2277 193.506 33.213 193.531 33.1734L192.357 33.7166C192.015 33.8838 191.621 33.9276 191.247 33.8398C190.874 33.752 190.546 33.5387 190.325 33.2391C190.117 32.9366 190.035 32.5714 190.094 32.2144C190.153 31.8573 190.349 31.5338 190.645 31.3066C190.63 31.3022 190.622 31.2871 190.609 31.2784L190.127 31.5017C189.803 31.658 189.433 31.7033 189.079 31.6299C188.725 31.5566 188.408 31.3692 188.183 31.0993C188.045 30.9274 187.949 30.7284 187.902 30.5169C187.855 30.3054 187.858 30.0866 187.91 29.8762C187.963 29.6659 188.064 29.4692 188.206 29.3005C188.348 29.1318 188.528 28.9952 188.732 28.9006L189.846 28.3852C189.842 28.3802 189.834 28.3795 189.831 28.3735C189.828 28.3675 189.831 28.3578 189.829 28.35C189.491 28.4253 189.135 28.3891 188.822 28.2474C188.508 28.1056 188.254 27.8668 188.101 27.5698C187.655 26.8269 188.315 25.9803 189.034 25.6473L191.388 24.7656C191.751 24.6296 192.143 24.5812 192.531 24.6245C192.919 24.6679 193.289 24.8017 193.609 25.014C196.381 26.8493 203.501 31.8071 201.204 32.8703L195.547 35.4875C195.211 35.6328 194.833 35.6674 194.473 35.5858C194.114 35.5042 193.793 35.3111 193.562 35.0369Z" fill="#E98862"/>
<path d="M19.5454 208H226.215C226.308 208 226.398 207.965 226.464 207.902C226.53 207.839 226.568 207.754 226.568 207.665C226.568 207.576 226.53 207.49 226.464 207.428C226.398 207.365 226.308 207.329 226.215 207.329H19.5454C19.4519 207.329 19.3622 207.365 19.2961 207.428C19.23 207.49 19.1928 207.576 19.1928 207.665C19.1928 207.754 19.23 207.839 19.2961 207.902C19.3622 207.965 19.4519 208 19.5454 208Z" fill="#292A2E"/>
<path d="M10.9511 134.857L8.32385 135.833L12.0296 144.848L14.6568 143.872L10.9511 134.857Z" fill="#5A189A"/>
<path d="M224.056 107.247L217.265 114.457L219.366 116.246L226.157 109.036L224.056 107.247Z" fill="#5A189A"/>
<path d="M192.921 139.517L191.23 141.664L199.377 147.467L201.068 145.32L192.921 139.517Z" fill="#E0AAFF"/>
<path d="M70.4834 62.8693L63.0699 69.5027L65.003 71.4561L72.4165 64.8227L70.4834 62.8693Z" fill="#5A189A"/>
<path d="M152.595 51.6175L150.15 52.9543L155.223 61.346L157.669 60.0092L152.595 51.6175Z" fill="#5A189A"/>
<path d="M52.8488 167.037L47.4164 175.223L49.802 176.654L55.2343 168.468L52.8488 167.037Z" fill="#E0AAFF"/>
<path d="M189.537 186.706L184.988 195.365L187.512 196.564L192.061 187.905L189.537 186.706Z" fill="#E0AAFF"/>
<path d="M226.457 163.924L223.755 164.694L226.678 173.965L229.38 173.195L226.457 163.924Z" fill="#5A189A"/>
<path d="M28.8134 189.451L27.2422 191.68L35.7012 197.071L37.2724 194.843L28.8134 189.451Z" fill="#5A189A"/>
<path d="M119.13 30.7636L116.684 32.1003L121.757 40.4918L124.203 39.155L119.13 30.7636Z" fill="#E0AAFF"/>
</g>
<defs>
<clipPath id="clip0_274_1445">
<rect width="247" height="208" fill="white"/>
</clipPath>
</defs>
</svg>
