<svg width="45" height="46" viewBox="0 0 45 46" fill="none" xmlns="http://www.w3.org/2000/svg">
<path d="M30.5747 2.91815C30.9364 3.0105 31.2474 3.24591 31.4394 3.57262C31.6314 3.89933 31.6886 4.2906 31.5984 4.6604L30.8953 7.5354C30.8542 7.7223 30.7769 7.89891 30.668 8.05485C30.5592 8.21079 30.4209 8.34291 30.2614 8.44345C30.1018 8.54399 29.9243 8.61092 29.7391 8.64031C29.5539 8.66969 29.3648 8.66094 29.183 8.61456C29.0011 8.56819 28.8302 8.48513 28.6802 8.37026C28.5302 8.2554 28.4042 8.11104 28.3096 7.94569C28.2149 7.78033 28.1536 7.5973 28.1291 7.40736C28.1047 7.21742 28.1176 7.02441 28.1672 6.83965L28.8703 3.96465C28.9607 3.59489 29.1909 3.27695 29.5106 3.08071C29.8302 2.88446 30.2129 2.826 30.5747 2.91815ZM38.9644 6.17265C39.228 6.44222 39.3761 6.80779 39.3761 7.18896C39.3761 7.57014 39.228 7.9357 38.9644 8.20528L36.1519 11.0803C36.0213 11.2139 35.8663 11.32 35.6956 11.3924C35.525 11.4648 35.342 11.5021 35.1572 11.5023C34.9725 11.5024 34.7895 11.4653 34.6187 11.3932C34.448 11.321 34.2928 11.2152 34.162 11.0817C33.898 10.8122 33.7495 10.4464 33.7492 10.065C33.749 9.68352 33.8969 9.31757 34.1606 9.04765L36.9731 6.17265C37.1038 6.03878 37.2589 5.93257 37.4298 5.8601C37.6006 5.78763 37.7838 5.75033 37.9688 5.75033C38.1537 5.75033 38.3369 5.78763 38.5077 5.8601C38.6786 5.93257 38.8337 6.03878 38.9644 6.17265ZM17.6737 37.4699C18.3796 38.6711 19.4902 39.5675 20.797 39.9907C22.1038 40.4139 23.5167 40.3347 24.7704 39.7681C26.0241 39.2015 27.0323 38.1863 27.6054 36.9135C28.1786 35.6406 28.2774 34.1976 27.8831 32.8555L17.6737 37.467V37.4699ZM15.0862 38.6371L12.2794 39.9079C11.5531 40.2358 10.7469 40.3317 9.96643 40.1829C9.18595 40.0341 8.46771 39.6476 7.90594 39.0742L6.78094 37.927C6.22052 37.3567 5.84193 36.6265 5.69486 35.8322C5.5478 35.0379 5.63913 34.2168 5.95687 33.4765L16.8441 8.15353C17.102 7.55554 17.4986 7.03075 17.9994 6.62453C18.5002 6.2183 19.0903 5.94285 19.7186 5.82198C20.3469 5.70111 20.9946 5.73846 21.6056 5.9308C22.2166 6.12313 22.7727 6.46467 23.2256 6.9259L38.2219 22.2094C38.6737 22.67 39.0087 23.2363 39.198 23.8592C39.3873 24.4821 39.4252 25.1428 39.3082 25.784C39.1913 26.4252 38.9232 27.0276 38.5271 27.5389C38.1309 28.0502 37.6188 28.4551 37.035 28.7184L30.4678 31.6854C31.162 33.7305 31.0785 35.9677 30.2339 37.9528C29.3892 39.9379 27.8452 41.5258 25.9084 42.4011C23.9716 43.2765 21.7836 43.3754 19.7787 42.6781C17.7739 41.9808 16.0989 40.5384 15.0862 38.6371ZM40.7812 14.375H37.9688C37.5958 14.375 37.2381 14.5265 36.9744 14.7961C36.7107 15.0656 36.5625 15.4313 36.5625 15.8125C36.5625 16.1938 36.7107 16.5594 36.9744 16.829C37.2381 17.0986 37.5958 17.25 37.9688 17.25H40.7812C41.1542 17.25 41.5119 17.0986 41.7756 16.829C42.0393 16.5594 42.1875 16.1938 42.1875 15.8125C42.1875 15.4313 42.0393 15.0656 41.7756 14.7961C41.5119 14.5265 41.1542 14.375 40.7812 14.375Z" fill="white"/>
</svg>
