<svg width="30" height="26" viewBox="0 0 30 26" fill="none" xmlns="http://www.w3.org/2000/svg">
<g filter="url(#filter0_bd_274_1375)">
<rect x="14.5217" y="14.4" width="0.956522" height="3" fill="white"/>
<rect x="4.47827" y="0.599976" width="21.0435" height="15" rx="7.5" fill="white"/>
</g>
<path d="M20.1209 4.90108C20.0798 4.85831 20.0293 4.82374 19.9727 4.79952C19.9162 4.7753 19.8547 4.76195 19.7922 4.76031C18.8213 4.73723 17.5926 3.79339 16.7803 3.423C16.2786 3.19492 15.9473 3.04454 15.6985 3.00492C15.648 2.99823 15.5967 2.99836 15.5462 3.00531C15.2974 3.04492 14.9662 3.19531 14.4648 3.42339C13.6525 3.79339 12.4239 4.73723 11.4529 4.76031C11.3904 4.76203 11.3289 4.77542 11.2723 4.79963C11.2157 4.82385 11.1651 4.85838 11.1238 4.90108C11.0381 4.98921 10.9939 5.10439 11.0007 5.22185C11.2093 9.07685 12.7302 11.4626 15.399 12.8492C15.4684 12.8849 15.5454 12.9034 15.6219 12.9034C15.6985 12.9034 15.7755 12.8849 15.8453 12.8492C18.5141 11.4626 20.0346 9.07685 20.2436 5.22185C20.2508 5.10441 20.2067 4.98914 20.1209 4.90108ZM17.9988 6.41723L15.7468 9.43839C15.6659 9.54685 15.539 9.61877 15.4134 9.61877C15.2873 9.61877 15.1473 9.55608 15.0588 9.47569L13.4714 8.03223C13.4196 7.98494 13.3905 7.92091 13.3905 7.85415C13.3905 7.7874 13.4196 7.72337 13.4714 7.67608L13.8636 7.31877C13.9158 7.27184 13.9862 7.24552 14.0595 7.24552C14.1329 7.24552 14.2033 7.27184 14.2554 7.31877L15.2877 8.25723L17.0811 5.85069C17.1226 5.79562 17.1864 5.75772 17.2585 5.74525C17.3307 5.73278 17.4053 5.74677 17.4661 5.78415L17.9252 6.06723C17.9858 6.10489 18.0276 6.16285 18.0414 6.22843C18.0552 6.29401 18.0399 6.36189 17.9988 6.41723Z" fill="#038900"/>
<defs>
<filter id="filter0_bd_274_1375" x="0" y="-4" width="30" height="30" filterUnits="userSpaceOnUse" color-interpolation-filters="sRGB">
<feFlood flood-opacity="0" result="BackgroundImageFix"/>
<feGaussianBlur in="BackgroundImageFix" stdDeviation="2"/>
<feComposite in2="SourceAlpha" operator="in" result="effect1_backgroundBlur_274_1375"/>
<feColorMatrix in="SourceAlpha" type="matrix" values="0 0 0 0 0 0 0 0 0 0 0 0 0 0 0 0 0 0 127 0" result="hardAlpha"/>
<feOffset dy="4"/>
<feGaussianBlur stdDeviation="2"/>
<feComposite in2="hardAlpha" operator="out"/>
<feColorMatrix type="matrix" values="0 0 0 0 0 0 0 0 0 0 0 0 0 0 0 0 0 0 0.25 0"/>
<feBlend mode="normal" in2="effect1_backgroundBlur_274_1375" result="effect2_dropShadow_274_1375"/>
<feBlend mode="normal" in="SourceGraphic" in2="effect2_dropShadow_274_1375" result="shape"/>
</filter>
</defs>
</svg>
