<?xml version="1.0" standalone="no"?>
<!DOCTYPE svg PUBLIC "-//W3C//DTD SVG 20010904//EN"
 "http://www.w3.org/TR/2001/REC-SVG-20010904/DTD/svg10.dtd">
<svg version="1.0" xmlns="http://www.w3.org/2000/svg"
 width="88" height="56" viewBox="0 0 670.000000 372.000000"
 preserveAspectRatio="xMidYMid meet">

<g transform="translate(0.000000,372.000000) scale(0.100000,-0.100000)"
fill="#ff6600" stroke="none">
<path d="M520 3275 c0 -8 -5 -15 -11 -15 -5 0 -7 5 -4 10 7 11 -6 13 -29 4 -9
-3 -13 -11 -9 -17 4 -6 0 -8 -9 -5 -14 6 -16 -19 -17 -197 -1 -117 2 -206 7
-209 5 -3 9 -51 7 -106 -1 -56 2 -103 7 -106 4 -3 6 -17 3 -32 -8 -47 4 -72
35 -72 16 0 30 6 33 13 3 9 9 9 28 -1 18 -9 84 -11 251 -10 l227 3 5 -28 c3
-16 4 -41 1 -55 -5 -23 -4 -24 4 -7 7 14 10 -2 10 -60 0 -51 -3 -73 -9 -60 -6
15 -7 11 -7 -17 1 -44 1 -43 21 -22 17 17 21 8 7 -15 -7 -11 -34 -15 -110 -15
-56 -1 -93 -4 -83 -9 10 -4 7 -5 -8 -1 -14 4 -103 7 -198 8 l-174 2 -20 -25
c-17 -22 -19 -38 -16 -126 l3 -100 442 -2 c244 -1 444 1 447 5 9 17 17 719 7
743 l-10 27 -280 7 c-207 6 -283 11 -291 20 -14 16 -5 176 10 185 6 4 9 13 7
21 -2 8 -2 11 0 7 2 -3 16 0 31 8 22 11 120 14 553 14 411 0 529 3 543 13 15
11 16 24 10 113 -6 94 -8 100 -28 99 -11 -1 -27 2 -34 8 -6 5 -34 7 -62 5 -28
-3 -54 0 -60 6 -8 8 -13 7 -20 -4 -7 -10 -10 -11 -10 -2 0 9 -126 12 -600 12
-522 0 -600 -2 -600 -15z m1283 -22 c-3 -7 -8 -13 -12 -13 -4 0 -8 6 -8 13 0
8 6 14 13 14 7 0 10 -6 7 -14z m77 -3 c13 -9 13 -10 0 -9 -8 0 -24 4 -35 9
l-20 9 20 0 c11 0 27 -4 35 -9z m-1062 -7 c-21 -2 -55 -2 -75 0 -21 2 -4 4 37
4 41 0 58 -2 38 -4z m912 -23 c0 -5 -4 -10 -9 -10 -6 0 -13 5 -16 10 -3 6 1
10 9 10 9 0 16 -4 16 -10z m167 4 c-3 -3 -12 -4 -19 -1 -8 3 -5 6 6 6 11 1 17
-2 13 -5z m-1219 -11 c-10 -2 -28 -2 -40 0 -13 2 -5 4 17 4 22 1 32 -1 23 -4z
m275 0 c-13 -2 -35 -2 -50 0 -16 2 -5 4 22 4 28 0 40 -2 28 -4z m974 -135 c-3
-8 -6 -5 -6 6 -1 11 2 17 5 13 3 -3 4 -12 1 -19z m-1157 -126 c0 -15 -2 -15
-10 -2 -13 20 -13 33 0 25 6 -3 10 -14 10 -23z m-40 -32 c0 -5 -5 -10 -11 -10
-5 0 -7 5 -4 10 3 6 8 10 11 10 2 0 4 -4 4 -10z m3 -100 c7 -26 -6 -33 -29
-15 -16 13 -17 16 -4 25 22 14 27 12 33 -10z m10 -45 c-3 -9 -8 -14 -10 -11
-3 3 -2 9 2 15 9 16 15 13 8 -4z m356 -11 c10 -9 -35 -3 -49 6 -11 8 -7 9 15
4 17 -4 32 -8 34 -10z m256 -32 c3 -10 0 -10 -15 -2 -11 6 -35 9 -53 7 -17 -2
-24 -2 -14 0 10 3 16 10 14 17 -4 10 3 10 29 2 18 -6 36 -17 39 -24z m-168 22
c-3 -3 -12 -4 -19 -1 -8 3 -5 6 6 6 11 1 17 -2 13 -5z m-388 -34 c-13 -9 -39
-2 -39 10 0 4 12 5 26 2 17 -3 22 -7 13 -12z m521 0 c0 -5 -2 -10 -4 -10 -3 0
-8 5 -11 10 -3 6 -1 10 4 10 6 0 11 -4 11 -10z m-823 -179 c-5 -2 -13 3 -18
10 -15 24 -10 30 9 12 10 -10 14 -20 9 -22z m655 -16 c-2 -14 -6 -25 -8 -25
-2 0 -4 11 -4 25 0 14 4 25 9 25 4 0 6 -11 3 -25z m-84 -21 c-3 -14 -5 -12
-10 9 -3 19 -2 25 4 19 6 -6 8 -18 6 -28z m-548 -269 c-7 -8 -18 -15 -24 -15
-6 0 -2 7 8 15 25 19 32 19 16 0z m45 -14 c-6 -5 -25 10 -25 20 0 5 6 4 14 -3
8 -7 12 -15 11 -17z m120 19 c3 -5 1 -10 -4 -10 -6 0 -11 5 -11 10 0 6 2 10 4
10 3 0 8 -4 11 -10z m73 -2 c8 -10 2 -13 -24 -13 -40 0 -42 2 -11 15 12 5 23
9 23 9 1 1 6 -5 12 -11z m75 0 c-2 -5 -13 -8 -24 -8 -10 0 -19 3 -19 8 0 4 11
7 24 7 13 0 22 -3 19 -7z m114 -4 c-3 -3 -12 -4 -19 -1 -8 3 -5 6 6 6 11 1 17
-2 13 -5z m33 -14 c0 -5 -4 -10 -10 -10 -5 0 -10 5 -10 10 0 6 5 10 10 10 6 0
10 -4 10 -10z m-452 -155 c-3 -14 -1 -25 6 -25 6 0 3 -5 -8 -11 -21 -13 -68 2
-48 15 7 4 12 2 12 -3 0 -6 6 -11 14 -11 8 0 14 6 13 13 -1 26 3 47 9 47 4 0
4 -11 2 -25z m805 -42 c-7 -2 -19 -2 -25 0 -7 3 -2 5 12 5 14 0 19 -2 13 -5z"/>
<path d="M3580 3279 c-14 -4 -21 -7 -16 -8 5 -1 3 -8 -4 -16 -8 -9 -9 -15 -2
-15 6 0 14 5 17 10 3 6 12 10 18 9 8 0 8 -2 -1 -6 -26 -10 -39 -59 -40 -158
-1 -64 2 -95 7 -86 7 10 8 2 6 -25 -6 -55 -13 -423 -8 -401 3 9 9 17 14 17 12
0 12 -1 -6 -43 -13 -32 -13 -36 0 -31 19 8 19 -13 1 -48 -13 -24 -13 -28 0
-28 18 0 18 -5 -3 -37 -10 -15 -13 -24 -6 -20 7 4 18 -2 27 -15 13 -18 16 -19
16 -5 0 36 15 15 16 -23 1 -22 -2 -37 -7 -34 -5 3 -9 12 -9 20 0 8 -4 12 -10
9 -5 -3 -10 3 -10 15 0 12 -4 18 -10 15 -12 -8 -8 -364 4 -383 10 -17 237 -16
259 1 15 10 18 34 20 175 1 90 5 166 9 168 4 2 7 209 8 459 l1 454 -25 16
c-14 10 -34 14 -45 10 -10 -3 -22 -2 -25 4 -7 11 -160 11 -196 0z m277 -51 c2
-17 0 -19 -6 -9 -5 8 -16 11 -25 8 -9 -4 -16 -2 -16 3 0 5 10 11 23 13 12 2
22 5 22 6 1 0 2 -9 2 -21z m-93 -3 c-4 -8 -15 -15 -25 -15 -27 0 -24 18 4 23
12 2 23 5 24 6 1 0 0 -6 -3 -14z m36 -5 c0 -5 -8 -10 -17 -10 -15 0 -16 2 -3
10 19 12 20 12 20 0z m-137 -21 c-3 -12 -2 -24 3 -28 12 -8 5 -111 -7 -111 -9
0 -10 137 -2 153 8 14 11 7 6 -14z m-46 -111 c-2 -24 -4 -7 -4 37 0 44 2 63 4
43 2 -21 2 -57 0 -80z m243 92 c0 -5 -5 -10 -11 -10 -5 0 -7 5 -4 10 3 6 8 10
11 10 2 0 4 -4 4 -10z m-3 -382 c-3 -7 -5 -2 -5 12 0 14 2 19 5 13 2 -7 2 -19
0 -25z m0 -200 c-3 -8 -6 -5 -6 6 -1 11 2 17 5 13 3 -3 4 -12 1 -19z m-244
-113 c-4 -35 -8 -44 -13 -30 -6 16 8 90 16 82 1 -1 0 -24 -3 -52z m244 -27
c-3 -7 -5 -2 -5 12 0 14 2 19 5 13 2 -7 2 -19 0 -25z m3 -48 c0 -5 -4 -10 -10
-10 -5 0 -10 5 -10 10 0 6 5 10 10 10 6 0 10 -4 10 -10z m-190 -124 c0 -14 -4
-28 -10 -31 -6 -4 -10 7 -10 24 0 17 5 31 10 31 6 0 10 -11 10 -24z m-83 -118
c-3 -8 -6 -5 -6 6 -1 11 2 17 5 13 3 -3 4 -12 1 -19z m21 -146 c6 -18 -15 -14
-22 4 -4 10 -1 14 6 12 6 -2 14 -10 16 -16z m155 -9 c-7 -18 -37 -25 -76 -18
-56 11 -41 30 23 30 41 0 56 -3 53 -12z m27 -3 c0 -5 -5 -10 -11 -10 -5 0 -7
5 -4 10 3 6 8 10 11 10 2 0 4 -4 4 -10z m-150 -10 c0 -5 -5 -10 -11 -10 -5 0
-7 5 -4 10 3 6 8 10 11 10 2 0 4 -4 4 -10z m200 6 c0 -2 -7 -7 -16 -10 -8 -3
-12 -2 -9 4 6 10 25 14 25 6z"/>
<path d="M4060 3279 c0 -6 -8 -8 -17 -5 -10 3 -25 1 -33 -4 -12 -8 -9 -10 13
-10 16 0 26 -4 23 -9 -3 -5 -16 -7 -29 -4 -18 5 -20 3 -9 -8 6 -7 12 -20 11
-28 0 -11 -3 -10 -9 4 -6 14 -9 -3 -9 -53 -1 -46 3 -71 9 -67 6 3 10 -1 10 -9
0 -9 -5 -16 -10 -16 -7 0 -10 -185 -9 -539 1 -468 3 -540 16 -545 8 -3 202 -6
431 -6 316 0 423 3 442 13 l25 13 3 247 c2 175 0 247 -8 247 -6 0 -9 4 -5 9 7
12 -435 13 -455 1 -11 -7 -12 -11 0 -25 10 -13 15 -13 21 -3 6 9 9 3 9 -15 0
-16 -4 -26 -9 -23 -5 4 -12 0 -15 -6 -3 -7 -3 -3 -1 9 3 12 1 24 -5 28 -6 4
-10 -11 -10 -40 0 -25 4 -44 9 -41 5 3 14 -1 21 -9 11 -13 10 -14 -6 -9 -16 5
-16 4 -4 -5 19 -14 134 -15 125 -1 -3 6 -2 10 3 10 6 0 9 -28 8 -62 -1 -54 -4
-63 -19 -62 -12 1 -15 -2 -8 -10 6 -8 2 -11 -14 -11 -14 0 -21 5 -18 13 5 13
-38 18 -50 5 -4 -4 -32 -5 -63 -4 -38 2 -54 -1 -49 -8 10 -17 -11 -13 -35 7
l-23 18 2 313 c1 172 5 319 8 327 7 19 -11 18 -27 -1 -7 -9 -15 -13 -18 -11
-2 3 7 19 22 36 14 17 26 40 26 51 0 12 7 19 20 19 11 0 20 3 20 8 0 4 50 5
111 4 85 -3 114 -1 121 10 8 10 9 9 5 -4 -3 -9 -3 -19 0 -22 4 -3 6 -47 5 -97
-1 -66 3 -95 13 -105 18 -19 29 -18 21 2 -3 8 -2 13 3 9 5 -3 12 1 15 7 4 7 4
3 2 -9 -4 -22 -2 -23 84 -23 61 0 90 4 93 13 4 10 6 10 6 0 1 -7 14 -13 30
-13 27 0 29 3 33 43 7 76 3 445 -5 453 -4 5 -12 2 -17 -6 -7 -10 -10 -11 -10
-2 0 9 -61 12 -271 12 -213 0 -269 -3 -263 -12 6 -10 5 -10 -7 -1 -20 16 -157
23 -162 9 -3 -8 -11 -7 -26 2 -25 15 -91 16 -91 1z m357 -15 c-3 -3 -12 -4
-19 -1 -8 3 -5 6 6 6 11 1 17 -2 13 -5z m458 -14 c3 -5 1 -10 -4 -10 -6 0 -11
5 -11 10 0 6 2 10 4 10 3 0 8 -4 11 -10z m-590 -21 c11 -17 -1 -21 -15 -4 -8
9 -8 15 -2 15 6 0 14 -5 17 -11z m-165 -9 c0 -13 -11 -13 -30 0 -12 8 -11 10
8 10 12 0 22 -4 22 -10z m359 -196 c10 -9 -65 -3 -78 5 -10 6 1 8 30 4 24 -3
46 -7 48 -9z m191 -14 c-7 -4 -9 -13 -6 -19 8 -13 4 -14 -18 -5 -9 3 -16 14
-15 23 0 11 2 12 6 3 4 -10 10 -7 21 9 11 16 17 19 20 10 2 -7 -1 -17 -8 -21z
m-12 -156 c16 -13 16 -13 0 -14 -25 0 -38 31 -37 87 l1 48 9 -54 c5 -31 17
-60 27 -67z m189 94 c-3 -8 -6 -5 -6 6 -1 11 2 17 5 13 3 -3 4 -12 1 -19z
m-581 -118 c-1 -48 -16 -54 -16 -7 0 28 6 47 15 47 2 0 2 -18 1 -40z m634 -15
c0 -8 -2 -15 -4 -15 -2 0 -6 7 -10 15 -3 8 -1 15 4 15 6 0 10 -7 10 -15z
m-593 -47 c-3 -8 -6 -5 -6 6 -1 11 2 17 5 13 3 -3 4 -12 1 -19z m-27 -14 c0
-2 -7 -4 -15 -4 -8 0 -15 4 -15 10 0 5 7 7 15 4 8 -4 15 -8 15 -10z m10 -34
c0 -13 -5 -18 -15 -14 -8 4 -15 10 -15 16 0 5 5 6 10 3 6 -3 10 -1 10 4 0 6 2
11 5 11 3 0 5 -9 5 -20z m17 -42 c-3 -7 -5 -2 -5 12 0 14 2 19 5 13 2 -7 2
-19 0 -25z m-7 -32 c0 -3 -4 -8 -10 -11 -5 -3 -10 -1 -10 4 0 6 5 11 10 11 6
0 10 -2 10 -4z m-7 -56 c3 -11 1 -23 -4 -26 -5 -3 -9 6 -9 20 0 31 6 34 13 6z
m-86 -72 c-3 -7 -5 -2 -5 12 0 14 2 19 5 13 2 -7 2 -19 0 -25z m84 9 c-1 -4
-1 -16 -1 -27 0 -12 -7 -20 -17 -20 -14 0 -15 2 -4 9 8 5 12 18 8 31 -3 12 -1
20 5 18 5 -2 9 -7 9 -11z m232 -24 c-7 -2 -19 -2 -25 0 -7 3 -2 5 12 5 14 0
19 -2 13 -5z m357 -13 c-8 -5 -19 -10 -25 -10 -5 0 -3 5 5 10 8 5 20 10 25 10
6 0 3 -5 -5 -10z m-671 -53 c-1 -40 -2 -40 -9 -12 -11 44 -11 67 0 60 6 -3 9
-25 9 -48z m346 33 c3 -5 -5 -6 -17 -3 -19 4 -20 3 -8 -6 13 -9 13 -11 -2 -11
-10 0 -22 8 -27 18 -9 16 -6 18 20 14 16 -2 31 -8 34 -12z m285 0 c0 -11 -2
-20 -4 -20 -2 0 -6 9 -9 20 -3 11 -1 20 4 20 5 0 9 -9 9 -20z m-42 -5 c3 -3
-13 -5 -36 -5 -22 0 -43 4 -46 9 -6 9 73 5 82 -4z m102 8 c0 -5 -4 -14 -9 -21
-7 -11 -9 -11 -14 1 -3 8 -3 18 0 21 9 8 23 7 23 -1z m-623 -50 c-3 -10 -5 -2
-5 17 0 19 2 27 5 18 2 -10 2 -26 0 -35z m376 40 c-13 -2 -33 -2 -45 0 -13 2
-3 4 22 4 25 0 35 -2 23 -4z m-146 -78 c0 -8 -4 -15 -8 -15 -4 0 -9 7 -13 15
-3 9 0 15 8 15 7 0 13 -7 13 -15z m213 3 c0 -4 -9 -8 -20 -8 -11 0 -20 4 -20
8 0 4 9 8 20 8 11 0 20 -4 20 -8z m175 2 c3 -5 1 -10 -4 -10 -6 0 -11 -12 -11
-26 0 -14 -4 -23 -10 -19 -16 10 -12 65 4 65 8 0 18 -4 21 -10z m-617 -37 l2
-38 -15 29 c-18 35 -19 46 -2 46 8 0 14 -15 15 -37z m376 -59 c18 -17 21 -28
6 -19 -5 3 -10 1 -10 -4 0 -22 -18 -10 -22 14 -6 29 4 32 26 9z m234 -34 c1
-16 -2 -30 -8 -30 -11 0 -14 43 -3 53 9 10 8 10 11 -23z m-605 -7 c-7 -2 -21
-2 -30 0 -10 3 -4 5 12 5 17 0 24 -2 18 -5z m52 -12 c3 -5 1 -12 -4 -15 -5 -3
-11 1 -15 9 -6 16 9 21 19 6z m80 -11 c-3 -5 -12 -10 -18 -10 -7 0 -6 4 3 10
19 12 23 12 15 0z m-125 -4 c0 -3 -4 -8 -10 -11 -5 -3 -10 -1 -10 4 0 6 5 11
10 11 6 0 10 -2 10 -4z m170 -6 c0 -5 -4 -10 -10 -10 -5 0 -10 5 -10 10 0 6 5
10 10 10 6 0 10 -4 10 -10z m387 -57 c-3 -10 -5 -4 -5 12 0 17 2 24 5 18 2 -7
2 -21 0 -30z m50 -25 c-3 -8 -6 -5 -6 6 -1 11 2 17 5 13 3 -3 4 -12 1 -19z
m-867 -2 c0 -3 -4 -8 -10 -11 -5 -3 -10 -1 -10 4 0 6 5 11 10 11 6 0 10 -2 10
-4z m835 -106 c3 -5 1 -10 -4 -10 -6 0 -11 5 -11 10 0 6 2 10 4 10 3 0 8 -4
11 -10z m-705 -10 c0 -5 -19 -10 -42 -10 -32 0 -39 3 -28 10 20 13 70 13 70 0z
m-120 -10 c0 -5 -7 -7 -15 -4 -8 4 -15 8 -15 10 0 2 7 4 15 4 8 0 15 -4 15
-10z m830 -10 c-8 -5 -22 -10 -30 -10 -13 0 -13 1 0 10 8 5 22 10 30 10 13 0
13 -1 0 -10z m-333 -6 c-3 -3 -12 -4 -19 -1 -8 3 -5 6 6 6 11 1 17 -2 13 -5z"/>
<path d="M2695 3271 c-11 -5 -59 -6 -107 -3 -93 5 -99 2 -78 -39 6 -10 7 -19
3 -19 -4 0 -8 -36 -8 -80 0 -44 2 -80 5 -80 3 0 4 -238 2 -530 l-2 -530 430 0
c255 0 429 4 426 9 -4 5 2 7 13 4 10 -3 22 1 26 8 6 8 4 10 -6 5 -8 -4 -6 -1
4 7 14 11 17 30 17 95 0 90 -12 112 -58 112 -15 0 -38 3 -51 7 -17 4 -22 3
-17 -5 7 -12 -6 -17 -16 -7 -8 9 -267 12 -262 3 3 -4 -36 -8 -85 -8 -54 0 -91
4 -91 10 0 15 -27 12 -42 -4 -11 -11 -16 -10 -30 7 -18 20 -24 62 -10 71 4 2
9 94 11 203 1 109 5 200 7 202 2 2 5 -79 5 -180 1 -101 3 -196 4 -211 3 -21 0
-26 -13 -21 -15 4 -15 3 -2 -6 13 -10 13 -12 0 -22 -13 -9 -12 -10 3 -5 9 3
17 1 17 -4 0 -6 -5 -10 -11 -10 -5 0 -7 -5 -3 -11 20 -33 24 54 22 421 -2 220
0 400 5 400 4 0 7 38 7 85 0 72 -3 88 -20 105 -24 24 -66 33 -95 21z m-47 -28
c-21 -2 -57 -2 -80 0 -24 2 -7 4 37 4 44 0 63 -2 43 -4z m129 -185 c-3 -8 -6
-5 -6 6 -1 11 2 17 5 13 3 -3 4 -12 1 -19z m5 -60 c-6 -6 -7 0 -4 19 5 21 7
23 10 9 2 -10 0 -22 -6 -28z m-83 -60 c1 -33 -3 -58 -9 -58 -6 0 -10 32 -9 78
1 90 17 72 18 -20z m82 -118 l-9 -45 -1 45 c0 25 3 56 7 70 l7 25 3 -25 c1
-14 -2 -45 -7 -70z m-33 -455 c-3 -3 -9 2 -12 12 -6 14 -5 15 5 6 7 -7 10 -15
7 -18z m-43 -57 c1 -14 -1 -15 -12 -7 -7 6 -13 23 -13 38 1 25 1 25 12 6 7
-11 13 -28 13 -37z m-9 -68 c0 -11 -5 -20 -11 -20 -9 0 -10 5 -6 30 2 19 18
10 17 -10z m681 -42 c-3 -8 -6 -5 -6 6 -1 11 2 17 5 13 3 -3 4 -12 1 -19z m33
-16 c0 -15 -2 -15 -10 -2 -13 20 -13 33 0 25 6 -3 10 -14 10 -23z m-29 -155
c-10 -9 -11 -8 -5 6 3 10 9 15 12 12 3 -3 0 -11 -7 -18z m-436 3 c-11 -5 -56
-8 -100 -7 l-80 1 85 6 c47 3 92 7 100 7 8 1 6 -2 -5 -7z m-185 -10 c0 -5 -2
-10 -4 -10 -3 0 -8 5 -11 10 -3 6 -1 10 4 10 6 0 11 -4 11 -10z m257 4 c-3 -3
-12 -4 -19 -1 -8 3 -5 6 6 6 11 1 17 -2 13 -5z m-109 -21 c-27 -2 -69 -2 -95
0 -27 2 -5 3 47 3 52 0 74 -1 48 -3z"/>
<path d="M5088 3272 l-28 -3 3 -112 c2 -62 7 -121 11 -132 6 -16 6 -17 -3 -5
-8 12 -11 3 -11 -35 0 -36 3 -46 10 -35 6 9 10 10 10 3 0 -6 3 -19 6 -28 4
-10 2 -15 -6 -13 -7 2 -14 -2 -17 -8 -2 -7 6 -12 19 -12 13 -1 66 -4 120 -8
112 -8 150 -2 141 23 -4 9 -2 14 3 11 5 -4 7 13 5 38 -3 42 -1 45 28 55 17 6
31 16 31 22 0 8 3 8 8 2 4 -6 54 -10 113 -10 66 0 106 4 105 10 -1 6 2 0 8
-12 5 -13 12 -23 15 -23 3 0 6 -44 6 -99 0 -68 -4 -103 -14 -115 -12 -14 -45
-16 -291 -16 -153 0 -285 -3 -293 -6 -13 -5 -15 -48 -17 -291 -1 -312 6 -456
23 -446 6 4 8 0 4 -10 -7 -18 -45 -16 526 -23 250 -3 347 -1 342 6 -4 7 0 10
11 8 18 -3 19 20 22 620 1 435 -1 622 -9 622 -5 0 -8 4 -4 9 3 6 -38 8 -101 5
-63 -2 -113 0 -125 7 -18 9 -19 8 -13 -18 l7 -28 -19 21 c-17 19 -27 20 -111
16 -63 -3 -93 -1 -93 6 0 10 -343 13 -422 4z m299 -18 c-3 -3 -12 -4 -19 -1
-8 3 -5 6 6 6 11 1 17 -2 13 -5z m-242 -14 c3 -5 -1 -10 -9 -10 -9 0 -16 5
-16 10 0 6 4 10 9 10 6 0 13 -4 16 -10z m173 3 c-10 -2 -28 -2 -40 0 -13 2 -5
4 17 4 22 1 32 -1 23 -4z m525 -10 c-4 -11 -8 -11 -22 -1 -9 7 -17 13 -19 14
-2 1 8 2 22 2 17 0 23 -5 19 -15z m44 11 c-3 -3 -12 -4 -19 -1 -8 3 -5 6 6 6
11 1 17 -2 13 -5z m-649 -11 c-10 -2 -28 -2 -40 0 -13 2 -5 4 17 4 22 1 32 -1
23 -4z m199 0 c-20 -2 -52 -2 -70 0 -17 2 0 4 38 4 39 0 53 -2 32 -4z m216 0
c-29 -2 -77 -2 -105 0 -29 2 -6 3 52 3 58 0 81 -1 53 -3z m297 -25 c0 -5 -9
-8 -20 -8 -23 0 -26 10 -8 28 9 9 14 9 20 -1 4 -6 8 -15 8 -19z m-860 -18 c0
-5 -4 -10 -10 -10 -5 0 -10 5 -10 10 0 6 5 10 10 10 6 0 10 -4 10 -10z m877
-42 c-2 -13 -4 -5 -4 17 -1 22 1 32 4 23 2 -10 2 -28 0 -40z m-612 -107 c3 -5
1 -12 -5 -16 -5 -3 -10 1 -10 9 0 18 6 21 15 7z m-67 -148 c-21 -2 -57 -2 -80
0 -24 2 -7 4 37 4 44 0 63 -2 43 -4z m-180 -142 c11 -6 9 -9 -7 -14 -12 -3
-22 1 -25 9 -6 16 12 18 32 5z m55 2 c-7 -2 -19 -2 -25 0 -7 3 -2 5 12 5 14 0
19 -2 13 -5z m177 -3 c0 -6 -33 -10 -80 -10 -47 0 -80 4 -80 10 0 6 33 10 80
10 47 0 80 -4 80 -10z m113 -7 c-7 -2 -19 -2 -25 0 -7 3 -2 5 12 5 14 0 19 -2
13 -5z m211 -17 c-3 -9 -10 -16 -15 -16 -5 0 -4 9 3 20 14 22 21 20 12 -4z
m-41 5 c4 -1 7 -6 7 -12 0 -8 -4 -8 -14 0 -10 8 -16 9 -21 1 -7 -11 -25 -4
-25 11 0 5 10 7 23 5 12 -3 25 -5 30 -5z m-484 -288 c-1 -150 -5 -257 -9 -243
-12 38 -12 510 0 510 6 0 10 -95 9 -267z m808 161 c-9 -9 -28 6 -21 18 4 6 10
6 17 -1 6 -6 8 -13 4 -17z m-7 -29 c10 -12 10 -15 -4 -15 -9 0 -16 7 -16 15 0
8 2 15 4 15 2 0 9 -7 16 -15z m-595 -25 c-3 -5 -11 -10 -16 -10 -6 0 -7 5 -4
10 3 6 11 10 16 10 6 0 7 -4 4 -10z m296 -14 c9 5 10 2 6 -9 -4 -10 -1 -17 6
-17 9 0 12 -27 11 -99 -1 -55 -5 -105 -9 -111 -4 -6 -1 -17 5 -25 10 -12 10
-15 -1 -15 -11 0 -11 -2 1 -10 13 -9 13 -10 0 -11 -8 -1 -23 0 -34 1 -13 1
-16 -2 -10 -12 6 -10 4 -10 -9 1 -15 12 -17 11 -17 -5 0 -15 -2 -16 -9 -5 -6
9 -23 12 -54 10 -25 -2 -43 -1 -40 4 7 12 -22 8 -35 -5 -9 -9 -12 -9 -12 1 0
9 -9 12 -26 8 -38 -7 -54 16 -55 81 -1 31 -1 64 0 73 1 9 -5 21 -13 28 -8 7
-12 19 -9 28 5 12 7 12 14 1 6 -8 9 -1 9 22 1 58 5 60 132 61 104 1 116 3 112
17 -5 14 -3 14 10 -2 8 -10 20 -15 27 -10z m-291 -301 c-7 -9 -15 -13 -19 -10
-3 3 1 10 9 15 21 14 24 12 10 -5z m-273 -117 c-3 -8 -6 -5 -6 6 -1 11 2 17 5
13 3 -3 4 -12 1 -19z m623 -83 c0 -8 -4 -15 -10 -15 -5 0 -10 7 -10 15 0 8 5
15 10 15 6 0 10 -7 10 -15z m84 9 c9 -3 16 -10 16 -15 0 -5 -11 -4 -25 1 -14
5 -32 7 -40 4 -8 -4 -15 -1 -15 5 0 12 38 15 64 5z m-387 -16 c44 -16 42 -29
-3 -15 -29 9 -37 8 -45 -4 -10 -16 -12 -8 -3 15 7 19 9 19 51 4z m-247 -14 c0
-2 -9 -4 -21 -4 -11 0 -18 4 -14 10 5 8 35 3 35 -6z m57 10 c-3 -3 -12 -4 -19
-1 -8 3 -5 6 6 6 11 1 17 -2 13 -5z m673 -2 c-39 -3 -49 -6 -35 -12 14 -5 6
-7 -25 -7 -25 0 -36 2 -25 4 11 3 24 9 30 14 5 5 32 8 60 7 l50 -2 -55 -4z
m-373 -10 c8 -5 -2 -8 -24 -9 -25 -1 -32 2 -22 8 17 11 30 11 46 1z m-180 -8
c-3 -3 -12 -4 -19 -1 -8 3 -5 6 6 6 11 1 17 -2 13 -5z m381 -1 c-10 -2 -26 -2
-35 0 -10 3 -2 5 17 5 19 0 27 -2 18 -5z m49 1 c-3 -3 -12 -4 -19 -1 -8 3 -5
6 6 6 11 1 17 -2 13 -5z"/>
<path d="M5543 3273 c15 -2 39 -2 55 0 15 2 2 4 -28 4 -30 0 -43 -2 -27 -4z"/>
<path d="M1876 2872 c-3 -5 -82 -7 -181 -6 -122 3 -175 0 -175 -7 0 -8 -5 -7
-15 1 -9 7 -18 10 -22 6 -3 -3 -1 -6 5 -6 7 0 12 -5 12 -11 0 -5 -4 -8 -9 -5
-5 3 -8 -5 -7 -18 0 -13 4 -22 7 -20 4 2 9 -3 12 -11 4 -9 1 -12 -9 -8 -13 5
-15 -21 -13 -201 1 -113 6 -206 11 -206 9 0 11 -134 1 -143 -3 -4 -8 -24 -11
-45 -9 -81 -8 -85 18 -90 51 -8 145 -8 158 1 8 6 12 5 12 -2 0 -7 41 -10 131
-10 l130 1 -2 72 c-2 56 -6 72 -19 73 -8 1 -46 4 -84 7 -37 3 -76 2 -85 -3 -9
-5 -30 -6 -48 -4 -32 5 -53 36 -52 78 0 11 -3 32 -7 48 -4 17 -2 27 5 27 6 0
8 7 4 17 -4 11 -3 14 5 9 7 -4 12 -3 12 3 0 5 3 16 6 24 4 12 0 14 -15 10 -12
-3 -21 -1 -21 4 0 5 10 9 23 8 12 -1 22 -8 21 -16 -1 -11 15 -13 78 -11 43 2
78 8 78 13 0 6 5 7 10 4 6 -4 10 13 10 44 l0 51 -92 2 c-51 0 -99 1 -105 1
-13 -1 -17 19 -13 69 1 20 -3 26 -12 23 -9 -4 -13 4 -14 22 -1 16 1 22 3 16 3
-7 9 -13 14 -13 15 0 10 79 -6 104 -13 20 -13 23 0 23 8 0 15 -6 15 -14 0 -7
7 -13 15 -13 8 0 15 -4 15 -10 0 -6 37 -10 91 -10 63 0 88 3 83 11 -4 8 1 9
16 4 15 -5 20 -4 16 4 -5 7 2 11 16 11 18 0 20 -2 8 -10 -12 -8 -9 -10 13 -10
26 0 27 2 27 55 0 41 -4 55 -14 55 -8 0 -21 3 -29 6 -8 3 -18 1 -21 -4z m-191
-22 c8 -13 -5 -13 -25 0 -13 8 -13 10 2 10 9 0 20 -4 23 -10z m-79 -22 c4 -6
-1 -17 -11 -25 -21 -15 -37 -1 -28 24 6 16 29 17 39 1z m216 -51 c4 -6 5 -14
2 -16 -3 -3 -9 1 -14 8 -4 8 -15 11 -24 8 -9 -4 -16 -2 -16 3 0 5 -8 11 -17
13 -10 2 0 2 22 -1 22 -2 43 -9 47 -15z m-250 -46 c15 -37 18 -52 7 -45 -5 3
-9 11 -9 17 0 7 -9 18 -20 25 -24 15 -26 29 -4 29 9 0 21 -12 26 -26z m15
-135 c-9 -24 -25 -19 -22 7 3 32 4 32 16 20 7 -7 9 -19 6 -27z m-38 -53 c14
-27 9 -29 -13 -7 -9 8 -13 20 -10 25 7 12 7 11 23 -18z m81 17 c0 -5 -2 -10
-4 -10 -3 0 -8 5 -11 10 -3 6 -1 10 4 10 6 0 11 -4 11 -10z m206 -48 c-3 -5
-18 -7 -33 -4 l-28 6 30 6 c34 7 40 5 31 -8z m-163 -23 c-11 -12 -26 -18 -32
-14 -17 10 6 35 32 35 l21 0 -21 -21z m67 -20 c-11 -8 -8 -9 13 -4 19 4 26 2
22 -5 -11 -18 -75 -9 -75 12 0 5 4 7 8 4 4 -2 14 -1 22 4 19 12 28 2 10 -11z
m-180 -33 c0 -2 -7 -7 -16 -10 -8 -3 -12 -2 -9 4 6 10 25 14 25 6z m-35 -36
c3 -5 1 -10 -4 -10 -6 0 -11 5 -11 10 0 6 2 10 4 10 3 0 8 -4 11 -10z m80 -80
c2 -16 -1 -27 -6 -24 -5 3 -8 18 -7 34 3 36 10 31 13 -10z m-65 -15 c0 -8 -2
-15 -4 -15 -2 0 -6 7 -10 15 -3 8 -1 15 4 15 6 0 10 -7 10 -15z m39 -74 c-15
-5 -22 6 -14 19 6 9 10 9 16 -1 5 -8 4 -15 -2 -18z m56 -1 c3 -5 1 -10 -4 -10
-6 0 -11 5 -11 10 0 6 2 10 4 10 3 0 8 -4 11 -10z m-119 -80 c5 1 10 -4 12
-10 3 -7 -3 -10 -14 -8 -10 2 -20 12 -22 23 -2 15 -1 16 6 7 5 -8 13 -13 18
-12z m123 -6 c2 -2 -21 -3 -50 -2 -37 0 -47 3 -34 8 17 7 73 3 84 -6z m51 6
c0 -5 -5 -10 -11 -10 -5 0 -7 5 -4 10 3 6 8 10 11 10 2 0 4 -4 4 -10z m134 -9
c4 -5 -3 -7 -14 -4 -23 6 -26 13 -6 13 8 0 17 -4 20 -9z m61 -21 c-3 -5 -12
-7 -20 -3 -21 7 -19 13 6 13 11 0 18 -4 14 -10z m-334 -18 c-7 -2 -18 1 -23 6
-8 8 -4 9 13 5 13 -4 18 -8 10 -11z m189 14 c0 -2 -11 -6 -25 -8 -14 -3 -25
-1 -25 3 0 5 11 9 25 9 14 0 25 -2 25 -4z"/>
<path d="M1481 2274 c0 -11 3 -14 6 -6 3 7 2 16 -1 19 -3 4 -6 -2 -5 -13z"/>
<path d="M3483 1663 l-81 -4 -8 -87 c-7 -89 2 -1301 10 -1309 2 -3 67 -5 143
-6 119 -2 142 1 156 15 15 14 17 44 17 240 0 123 5 407 10 633 10 420 6 497
-27 509 -22 9 -133 13 -220 9z"/>
<path d="M494 1650 c-20 -8 -21 -16 -27 -311 -9 -408 -9 -1057 1 -1062 4 -2
80 -2 170 1 l162 5 0 228 c0 221 1 229 20 229 10 0 24 -9 30 -19 5 -11 16 -25
23 -33 8 -7 33 -45 57 -83 51 -82 92 -139 103 -143 4 -2 7 -10 7 -17 0 -8 6
-20 13 -27 7 -7 22 -26 33 -43 10 -16 22 -34 26 -40 48 -62 42 -60 130 -66 45
-3 234 -7 419 -8 332 -2 424 5 441 32 4 7 8 54 8 105 0 74 -3 97 -17 110 -15
15 -56 17 -384 20 l-368 3 -28 42 c-15 23 -35 56 -43 72 -8 17 -23 39 -32 49
-10 10 -25 39 -35 62 -10 24 -21 44 -25 44 -13 0 -9 31 6 46 8 8 22 14 31 14
18 0 78 30 83 43 2 4 8 7 13 7 15 0 45 27 98 89 11 13 30 44 42 70 11 25 26
57 32 70 17 34 15 167 -3 221 -31 97 -116 198 -197 236 -21 10 -40 21 -43 24
-3 3 -35 13 -72 23 -56 14 -112 17 -360 16 -161 0 -302 -4 -314 -9z m627 -321
c48 -51 51 -129 7 -176 -20 -22 -29 -23 -175 -23 l-153 0 0 115 0 114 58 4
c31 3 97 3 145 1 84 -4 90 -6 118 -35z"/>
<path d="M2259 1656 c-2 -2 -4 -311 -3 -685 0 -473 3 -684 11 -692 13 -13 844
-16 918 -3 l50 9 3 114 c2 85 -1 117 -10 123 -7 5 -146 6 -318 2 -252 -5 -308
-4 -316 7 -14 18 -27 828 -14 849 7 11 68 16 327 23 226 6 320 12 325 20 9 14
10 147 2 200 l-7 37 -482 0 c-265 0 -484 -2 -486 -4z"/>
<path d="M3885 1642 c-3 -8 -5 -322 -5 -698 l0 -684 163 2 162 3 6 275 c4 151
7 280 8 286 2 16 134 34 254 34 56 0 107 4 113 8 31 20 27 229 -5 239 -9 2
-24 9 -33 14 -10 5 -85 9 -167 9 -109 0 -152 3 -158 13 -12 20 -16 190 -4 220
l11 27 293 0 c215 0 296 3 305 12 8 8 12 53 12 136 l0 124 -475 -3 c-384 -3
-476 -7 -480 -17z"/>
<path d="M4995 1650 c-7 -12 -10 -361 -7 -857 l2 -533 468 0 c419 0 470 2 491
17 23 15 24 19 18 112 -3 53 -9 106 -13 118 l-6 23 -302 0 c-222 0 -305 3
-314 12 -13 13 -17 232 -6 275 8 28 21 31 202 39 90 4 159 12 168 19 34 24 30
221 -4 231 -9 3 -25 10 -34 15 -10 5 -87 9 -172 9 -179 0 -166 -11 -166 133 0
138 -29 127 315 127 281 0 295 1 305 19 5 11 10 72 10 136 l0 117 -476 -3
c-262 -2 -477 -6 -479 -9z"/>
<path d="M1610 1085 l0 -425 250 0 250 0 0 79 0 79 -103 7 c-57 3 -119 4 -139
0 -21 -4 -45 -2 -57 4 -19 11 -21 21 -21 97 0 72 3 85 18 90 9 3 26 10 37 15
11 5 52 10 90 11 l70 3 3 37 c6 70 -6 78 -111 78 -59 0 -97 4 -105 12 -8 8
-12 46 -12 105 0 102 8 115 67 111 15 -1 81 -1 146 0 l117 2 0 60 0 60 -250 0
-250 0 0 -425z"/>
</g>
</svg>
