<?xml version="1.0" standalone="no"?>
<!DOCTYPE svg PUBLIC "-//W3C//DTD SVG 20010904//EN"
 "http://www.w3.org/TR/2001/REC-SVG-20010904/DTD/svg10.dtd">
<svg version="1.0" xmlns="http://www.w3.org/2000/svg"
 width="161" height="48" viewBox="0 0 785.000000 224.000000"
 preserveAspectRatio="xMidYMid meet">

<g transform="translate(0.000000,224.000000) scale(0.100000,-0.100000)"
fill="#0090FF" stroke="none">
<path d="M312 1731 c-48 -4 -76 -11 -83 -21 -13 -19 -4 -557 11 -594 l10 -26
233 0 234 0 6 -46 c3 -26 3 -72 0 -104 l-6 -57 -126 -6 c-69 -4 -176 -7 -238
-7 -133 0 -129 4 -118 -130 l7 -89 52 -6 c59 -7 692 -3 700 5 2 3 8 143 12
311 5 219 4 311 -4 326 -11 20 -22 21 -248 28 -196 6 -237 10 -241 23 -9 23
14 154 29 163 7 5 214 9 459 9 343 0 449 3 463 13 14 10 16 26 14 102 l-3 89
-35 7 c-45 9 -1031 17 -1128 10z"/>
<path d="M2563 1731 c-45 -3 -85 -10 -90 -14 -10 -11 -11 -1012 0 -1049 l7
-28 345 0 c189 0 355 4 368 9 l25 10 6 213 c12 364 12 846 1 857 -12 12 -225
3 -247 -10 -10 -7 -14 -97 -18 -436 l-5 -428 -114 -3 -114 -3 7 419 c5 278 4
427 -3 445 -12 30 -6 29 -168 18z"/>
<path d="M1586 1699 c-3 -17 -6 -260 -6 -539 0 -422 2 -510 14 -519 18 -15
740 -11 755 4 7 7 12 91 13 216 2 163 0 209 -11 222 -12 15 -36 17 -175 16
-88 -1 -174 -4 -191 -8 -28 -6 -30 -9 -33 -59 -2 -30 2 -60 8 -67 7 -8 35 -15
63 -17 l52 -3 0 -35 0 -35 -103 -5 c-57 -3 -106 -3 -108 -1 -6 7 -5 416 3 524
l6 98 106 -3 106 -3 5 -94 5 -95 125 3 c68 1 128 5 132 7 14 9 10 398 -4 412
-9 9 -108 12 -384 12 l-371 0 -7 -31z"/>
<path d="M3455 1721 l-110 -6 -7 -40 c-4 -22 -7 -262 -7 -533 -1 -393 2 -494
12 -498 7 -2 69 -1 137 3 l125 8 3 178 c1 97 6 177 10 177 4 0 54 -70 111
-155 148 -219 135 -209 287 -213 93 -3 124 -1 124 9 0 6 -55 102 -121 213 -67
111 -124 204 -126 208 -2 4 24 21 57 38 132 67 193 157 194 288 1 65 -3 86
-27 134 -47 96 -145 165 -267 188 -54 10 -198 10 -395 1z m393 -268 c29 -31
30 -93 3 -117 -16 -15 -40 -18 -128 -19 l-108 -2 -8 60 c-14 110 -7 116 138
108 69 -4 83 -8 103 -30z"/>
<path d="M4774 1719 c-5 -8 -9 -203 -9 -434 l0 -420 -260 -5 -260 -5 -3 -107
-3 -108 373 1 c205 1 384 4 398 8 l25 7 3 219 c1 121 6 223 10 227 5 5 59 -95
120 -222 61 -126 115 -230 119 -231 4 -1 59 -2 121 -3 114 -2 114 -2 125 23 7
18 10 184 9 531 -2 466 -4 506 -20 518 -13 11 -42 13 -117 9 -55 -3 -108 -9
-117 -12 -16 -7 -18 -26 -18 -210 0 -130 -4 -206 -10 -210 -6 -4 -51 77 -109
197 -54 112 -106 210 -116 218 -24 20 -249 28 -261 9z"/>
<path d="M5660 1724 c-13 -4 -15 -71 -14 -533 1 -291 5 -534 8 -540 5 -7 52
-11 127 -11 l119 0 0 -99 0 -99 119 -4 c66 -1 123 -7 128 -11 14 -15 16 -196
3 -212 -10 -12 -38 -15 -125 -15 -68 0 -115 -4 -117 -10 -2 -6 -2 -30 0 -54
l4 -43 184 -7 c101 -4 189 -4 194 -1 16 10 13 410 -3 423 -7 6 -37 12 -67 14
l-55 3 -3 56 -3 57 125 4 c83 2 130 8 138 17 16 16 12 169 -4 189 -10 12 -54
14 -253 11 l-240 -4 -6 320 c-4 176 -5 322 -2 325 2 3 115 7 249 10 202 4 247
8 255 20 15 23 6 180 -12 191 -13 8 -718 11 -749 3z"/>
<path d="M6546 1722 c-3 -5 -8 -82 -12 -170 l-7 -162 131 0 131 0 3 53 3 52
118 3 118 3 -3 -98 -3 -98 -245 -5 -245 -5 0 -310 c0 -171 3 -318 7 -327 7
-17 35 -18 381 -18 295 0 377 3 385 13 15 18 3 1058 -12 1062 -28 8 -745 15
-750 7z m468 -638 c13 -5 16 -25 16 -115 l0 -110 -117 3 -118 3 -3 99 c-2 64
1 103 9 112 8 10 37 14 104 14 52 0 100 -3 109 -6z"/>
<path d="M4254 1595 c-3 -8 -7 -45 -7 -82 l-2 -68 75 0 c74 0 75 0 78 28 3 24
7 27 41 27 52 0 61 -14 61 -92 0 -85 -5 -88 -139 -88 -59 0 -102 -4 -106 -11
-4 -5 -7 -88 -7 -182 l-1 -172 44 -7 c24 -3 113 -7 197 -7 l152 -1 0 178 c0
97 3 248 7 335 l6 157 -197 0 c-163 0 -198 -2 -202 -15z m244 -452 c-3 -44 -5
-48 -33 -54 -48 -9 -65 5 -65 56 l0 45 51 0 50 0 -3 -47z"/>
<path d="M1103 1382 c-8 -5 -12 -98 -14 -327 l-3 -320 29 -6 c17 -4 105 -7
198 -8 l167 -1 0 69 0 70 -53 6 c-29 4 -82 5 -118 3 l-64 -3 -3 58 c-4 77 5
87 82 87 79 0 88 7 84 61 l-3 44 -75 3 c-56 2 -78 7 -87 19 -14 18 -17 111 -5
130 5 8 47 13 127 15 l120 3 0 50 0 50 -185 2 c-102 2 -190 0 -197 -5z"/>
</g>
</svg>
